<svg id="Layer_1" data-name="Layer 1" xmlns="http://www.w3.org/2000/svg" viewBox="0 0 453.06 181.63"><title>aArtboard 2</title><path d="M14.22,51H0v91.31H15.91v-28.7H16c16.18-1.17,27.65-11,27.65-31.56v-.27C43.69,60.42,31.56,51,14.22,51ZM27.78,82.6c0,11.09-5.09,15.91-11.74,16.3h-.13V65.77h.52c6.92,0,11.35,5,11.35,16.57Z" style="fill:#fff"/><path d="M101.47,50.77,87,127.21H66.12V51H50.21v91.31h49.3l2.87-18.13h14.48l3,18.13h15.91L118.42,50.77Zm3.26,59.09,5-30.13,4.82,30.13Z" style="fill:#fff"/><polygon points="133.94 51.03 133.94 66.16 145.16 66.16 145.16 142.34 161.07 142.34 161.07 66.16 187.41 66.16 187.41 142.34 203.33 142.34 203.33 66.16 214.54 66.16 214.54 51.03 133.94 51.03" style="fill:#fff"/><path d="M276.41,40.86l-20.83,86.35H237.11V104h13l3.82-15.13H237.11V66.16h19V51h-35v91.31h30.74l-2.37,9.81c56.79,3.08,114.45,11.79,171.11,29.48L453.06,0C394.28,24.2,334.86,35,276.41,40.86Zm99,101.46H359L345.46,66.17H330.82v75.89H315V66.17H303.79V51.1h55.1l8.57,59.25L376,51.1h15.59Z" style="fill:#fff"/></svg>